<svg xmlns="http://www.w3.org/2000/svg" viewBox="0 0 1024 1024"><defs><linearGradient id="countdown-plate" x1="0.12" y1="0.02" x2="0.88" y2="0.98"><stop offset="0" stop-color="#dfa85b"/><stop offset="0.55" stop-color="#c8893f"/><stop offset="1" stop-color="#a9692b"/></linearGradient><clipPath id="countdown-clip"><rect x="100" y="100" width="824" height="824" rx="185"/></clipPath><filter id="countdown-drop" x="-10%" y="-10%" width="120%" height="125%"><feGaussianBlur stdDeviation="14"/></filter><filter id="countdown-blur" x="-25%" y="-25%" width="150%" height="150%"><feGaussianBlur stdDeviation="16"/></filter><filter id="countdown-soft" x="-30%" y="-100%" width="160%" height="300%"><feGaussianBlur stdDeviation="9"/></filter><filter id="countdown-hsoft" x="-30%" y="-40%" width="160%" height="180%"><feGaussianBlur stdDeviation="0.45"/></filter><linearGradient id="countdown-stick" x1="214" y1="214" x2="810" y2="810" gradientUnits="userSpaceOnUse"><stop offset="0" stop-color="#ffffff"/><stop offset="1" stop-color="#efe7da"/></linearGradient><radialGradient id="countdown-face" cx="451.4" cy="441.3" r="282.79999999999995" gradientUnits="userSpaceOnUse"><stop offset="0" stop-color="#fffdf8"/><stop offset="1" stop-color="#f3ebdd"/></radialGradient><linearGradient id="countdown-band" x1="214" y1="0" x2="810" y2="0" gradientUnits="userSpaceOnUse"><stop offset="0%" stop-color="#ec5a4b"/><stop offset="16.7%" stop-color="#f48d2f"/><stop offset="33.3%" stop-color="#f4c332"/><stop offset="50%" stop-color="#5cb866"/><stop offset="66.7%" stop-color="#2fb2ad"/><stop offset="83.3%" stop-color="#4a8ddf"/><stop offset="100%" stop-color="#9868d8"/></linearGradient><linearGradient id="countdown-bandlit" x1="214" y1="214" x2="810" y2="810" gradientUnits="userSpaceOnUse"><stop offset="0" stop-color="#fff" stop-opacity="0.22"/><stop offset="0.5" stop-color="#fff" stop-opacity="0"/><stop offset="1" stop-color="#2a1204" stop-opacity="0.12"/></linearGradient><linearGradient id="countdown-star" x1="0" y1="0" x2="0" y2="1"><stop offset="0" stop-color="#ffc53d"/><stop offset="1" stop-color="#f7892a"/></linearGradient></defs><rect x="108" y="114" width="808" height="814" rx="182" fill="#3b2410" fill-opacity="0.3" filter="url(#countdown-drop)"/><g clip-path="url(#countdown-clip)"><rect x="100" y="100" width="824" height="824" fill="url(#countdown-plate)"/><path d="M470 100L924 100L924 600Z" fill="#fff3dc" fill-opacity="0.13"/><path d="M100 470L100 924L660 924Z" fill="#5a2c08" fill-opacity="0.1"/><g fill="#3b2a14" stroke="none" opacity="0.34" transform="translate(10 18)" filter="url(#countdown-blur)"><circle cx="512" cy="512" r="260"/><path d="M559.7 266.6A250 250 0 1 1 297.7 640.8" fill="none" stroke="#3b2a14" stroke-width="144" stroke-linecap="round"/></g></g><rect x="104" y="104" width="816" height="816" rx="181" fill="none" stroke="#fff3dd" stroke-opacity="0.6" stroke-width="8"/><g fill="url(#countdown-stick)" stroke="none" ><circle cx="512" cy="512" r="260"/><path d="M559.7 266.6A250 250 0 1 1 297.7 640.8" fill="none" stroke="url(#countdown-stick)" stroke-width="144" stroke-linecap="round"/></g><circle cx="512" cy="512" r="219" fill="none" stroke="#e4d9c6" stroke-width="34"/><circle cx="512" cy="512" r="202" fill="url(#countdown-face)"/><circle cx="512" cy="512" r="199" fill="none" stroke="#6e4c2e" stroke-opacity="0.08" stroke-width="6"/><path d="M559.7 266.6A250 250 0 1 1 297.7 640.8" fill="none" stroke="url(#countdown-band)" stroke-width="96" stroke-linecap="round"/><path d="M559.7 266.6A250 250 0 1 1 297.7 640.8" fill="none" stroke="url(#countdown-bandlit)" stroke-width="96" stroke-linecap="round"/></svg>