<svg xmlns="http://www.w3.org/2000/svg" viewBox="0 0 1024 1024"><defs><linearGradient id="goldstard-plate" x1="0.12" y1="0.02" x2="0.88" y2="0.98"><stop offset="0" stop-color="#7a5128"/><stop offset="0.55" stop-color="#5a3718"/><stop offset="1" stop-color="#3a220e"/></linearGradient><clipPath id="goldstard-clip"><rect x="100" y="100" width="824" height="824" rx="185"/></clipPath><filter id="goldstard-drop" x="-10%" y="-10%" width="120%" height="125%"><feGaussianBlur stdDeviation="14"/></filter><filter id="goldstard-blur" x="-25%" y="-25%" width="150%" height="150%"><feGaussianBlur stdDeviation="16"/></filter><filter id="goldstard-soft" x="-30%" y="-100%" width="160%" height="300%"><feGaussianBlur stdDeviation="9"/></filter><filter id="goldstard-hsoft" x="-30%" y="-40%" width="160%" height="180%"><feGaussianBlur stdDeviation="0.45"/></filter><linearGradient id="goldstard-stick" x1="276" y1="276" x2="820" y2="820" gradientUnits="userSpaceOnUse"><stop offset="0" stop-color="#e9dfd0"/><stop offset="1" stop-color="#cfc3b1"/></linearGradient><radialGradient id="goldstard-face" cx="492.8" cy="483.6" r="257.59999999999997" gradientUnits="userSpaceOnUse"><stop offset="0" stop-color="#3a342e"/><stop offset="1" stop-color="#2b2622"/></radialGradient><linearGradient id="goldstard-band" x1="276" y1="0" x2="820" y2="0" gradientUnits="userSpaceOnUse"><stop offset="0%" stop-color="#ec5a4b"/><stop offset="16.7%" stop-color="#f48d2f"/><stop offset="33.3%" stop-color="#f4c332"/><stop offset="50%" stop-color="#5cb866"/><stop offset="66.7%" stop-color="#2fb2ad"/><stop offset="83.3%" stop-color="#4a8ddf"/><stop offset="100%" stop-color="#9868d8"/></linearGradient><linearGradient id="goldstard-bandlit" x1="276" y1="276" x2="820" y2="820" gradientUnits="userSpaceOnUse"><stop offset="0" stop-color="#fff" stop-opacity="0.22"/><stop offset="0.5" stop-color="#fff" stop-opacity="0"/><stop offset="1" stop-color="#2a1204" stop-opacity="0.12"/></linearGradient><linearGradient id="goldstard-star" x1="0" y1="0" x2="0" y2="1"><stop offset="0" stop-color="#ffc53d"/><stop offset="1" stop-color="#f7892a"/></linearGradient></defs><rect x="108" y="114" width="808" height="814" rx="182" fill="#3b2410" fill-opacity="0.3" filter="url(#goldstard-drop)"/><g clip-path="url(#goldstard-clip)"><rect x="100" y="100" width="824" height="824" fill="url(#goldstard-plate)"/><path d="M470 100L924 100L924 600Z" fill="#ffe9c8" fill-opacity="0.07"/><path d="M100 470L100 924L660 924Z" fill="#000" fill-opacity="0.14"/><g fill="#000" stroke="none" opacity="0.5" transform="translate(10 18)" filter="url(#goldstard-blur)"><circle cx="548" cy="548" r="237"/><path d="M591.7 324.2A228 228 0 1 1 352.7 665.6" fill="none" stroke="#000" stroke-width="132" stroke-linecap="round"/></g></g><rect x="104" y="104" width="816" height="816" rx="181" fill="none" stroke="#f3d9ae" stroke-opacity="0.22" stroke-width="8"/><g fill="url(#goldstard-stick)" stroke="none" ><circle cx="548" cy="548" r="237"/><path d="M591.7 324.2A228 228 0 1 1 352.7 665.6" fill="none" stroke="url(#goldstard-stick)" stroke-width="132" stroke-linecap="round"/></g><circle cx="548" cy="548" r="199.5" fill="none" stroke="#4c443b" stroke-width="31"/><circle cx="548" cy="548" r="184" fill="url(#goldstard-face)"/><circle cx="548" cy="548" r="181" fill="none" stroke="#6e4c2e" stroke-opacity="0.3" stroke-width="6"/><path d="M591.7 324.2A228 228 0 1 1 352.7 665.6" fill="none" stroke="url(#goldstard-band)" stroke-width="88" stroke-linecap="round"/><path d="M591.7 324.2A228 228 0 1 1 352.7 665.6" fill="none" stroke="url(#goldstard-bandlit)" stroke-width="88" stroke-linecap="round"/><path d="M301.9 297Q304.9 283.2 314 294L350 336.5Q355.5 343 363.9 342.2L419.5 336.6Q433.5 335.2 426.1 347.2L396.7 394.6Q392.3 401.8 395.7 409.5L418.1 460.6Q423.8 473.5 410.1 470.2L355.9 456.9Q347.7 454.9 341.4 460.5L299.7 497.7Q289.2 507.1 288.2 493L284 437.4Q283.4 429 276.1 424.7L227.9 396.6Q215.7 389.5 228.8 384.2L280.4 363Q288.2 359.8 290 351.5Z" fill="#000" fill-opacity="0.5" stroke="#000" stroke-opacity="0.5" stroke-width="40.1" stroke-linejoin="round" transform="translate(8 14)" filter="url(#goldstard-blur)"/><path d="M301.9 297Q304.9 283.2 314 294L350 336.5Q355.5 343 363.9 342.2L419.5 336.6Q433.5 335.2 426.1 347.2L396.7 394.6Q392.3 401.8 395.7 409.5L418.1 460.6Q423.8 473.5 410.1 470.2L355.9 456.9Q347.7 454.9 341.4 460.5L299.7 497.7Q289.2 507.1 288.2 493L284 437.4Q283.4 429 276.1 424.7L227.9 396.6Q215.7 389.5 228.8 384.2L280.4 363Q288.2 359.8 290 351.5Z" fill="#e9dfd0" stroke="#e9dfd0" stroke-width="40.1" stroke-linejoin="round"/><path d="M301.9 297Q304.9 283.2 314 294L350 336.5Q355.5 343 363.9 342.2L419.5 336.6Q433.5 335.2 426.1 347.2L396.7 394.6Q392.3 401.8 395.7 409.5L418.1 460.6Q423.8 473.5 410.1 470.2L355.9 456.9Q347.7 454.9 341.4 460.5L299.7 497.7Q289.2 507.1 288.2 493L284 437.4Q283.4 429 276.1 424.7L227.9 396.6Q215.7 389.5 228.8 384.2L280.4 363Q288.2 359.8 290 351.5Z" fill="url(#goldstard-star)"/><path d="M306.6 330.5Q308.3 322.9 313.3 328.8L333.1 352.2Q336.1 355.8 340.7 355.3L371.3 352.3Q379 351.5 374.9 358.1L358.8 384.2Q356.3 388.2 358.2 392.5L370.6 420.5Q373.7 427.6 366.2 425.8L336.3 418.5Q331.8 417.4 328.3 420.5L305.4 440.9Q299.6 446.1 299 438.4L296.7 407.7Q296.4 403.1 292.4 400.8L265.9 385.3Q259.2 381.4 266.4 378.4L294.8 366.8Q299.1 365 300.1 360.5Z" fill="#fff6d8" fill-opacity="0.35"/></svg>