<svg xmlns="http://www.w3.org/2000/svg" viewBox="0 0 1024 1024"><defs><linearGradient id="hamsters-plate" x1="0.12" y1="0.02" x2="0.88" y2="0.98"><stop offset="0" stop-color="#dfa85b"/><stop offset="0.55" stop-color="#c8893f"/><stop offset="1" stop-color="#a9692b"/></linearGradient><clipPath id="hamsters-clip"><rect x="100" y="100" width="824" height="824" rx="185"/></clipPath><filter id="hamsters-drop" x="-10%" y="-10%" width="120%" height="125%"><feGaussianBlur stdDeviation="14"/></filter><filter id="hamsters-blur" x="-25%" y="-25%" width="150%" height="150%"><feGaussianBlur stdDeviation="16"/></filter><filter id="hamsters-soft" x="-30%" y="-100%" width="160%" height="300%"><feGaussianBlur stdDeviation="9"/></filter><filter id="hamsters-hsoft" x="-30%" y="-40%" width="160%" height="180%"><feGaussianBlur stdDeviation="0.45"/></filter><linearGradient id="hamsters-stick" x1="160" y1="160" x2="864" y2="864" gradientUnits="userSpaceOnUse"><stop offset="0" stop-color="#ffffff"/><stop offset="1" stop-color="#efe7da"/></linearGradient><radialGradient id="hamsters-face" cx="447.8" cy="437.1" r="299.59999999999997" gradientUnits="userSpaceOnUse"><stop offset="0" stop-color="#fffdf8"/><stop offset="1" stop-color="#f3ebdd"/></radialGradient><linearGradient id="hamsters-band" x1="160" y1="0" x2="864" y2="0" gradientUnits="userSpaceOnUse"><stop offset="0%" stop-color="#ec5a4b"/><stop offset="16.7%" stop-color="#f48d2f"/><stop offset="33.3%" stop-color="#f4c332"/><stop offset="50%" stop-color="#5cb866"/><stop offset="66.7%" stop-color="#2fb2ad"/><stop offset="83.3%" stop-color="#4a8ddf"/><stop offset="100%" stop-color="#9868d8"/></linearGradient><linearGradient id="hamsters-bandlit" x1="160" y1="160" x2="864" y2="864" gradientUnits="userSpaceOnUse"><stop offset="0" stop-color="#fff" stop-opacity="0.22"/><stop offset="0.5" stop-color="#fff" stop-opacity="0"/><stop offset="1" stop-color="#2a1204" stop-opacity="0.12"/></linearGradient><linearGradient id="hamsters-star" x1="0" y1="0" x2="0" y2="1"><stop offset="0" stop-color="#ffc53d"/><stop offset="1" stop-color="#f7892a"/></linearGradient></defs><rect x="100" y="100" width="824" height="824" rx="185" fill="#c8893f"/><g fill="#ffffff" stroke="none" ><circle cx="512" cy="512" r="304"/><path d="M580.3 237.4A283 283 0 1 1 277.3 670.1" fill="none" stroke="#ffffff" stroke-width="218" stroke-linecap="round"/></g><circle cx="512" cy="512" r="239" fill="none" stroke="#e4d9c6" stroke-width="50"/><circle cx="512" cy="512" r="214" fill="#fffdf8"/><path d="M580.3 237.4A283 283 0 1 1 277.3 670.1" fill="none" stroke="url(#hamsters-band)" stroke-width="138" stroke-linecap="round"/><circle cx="479.9" cy="539.8" r="94.2" fill="#D2691E" stroke="#8B4513" stroke-width="12.8"/><circle cx="593.3" cy="469.2" r="62.1" fill="#DEB887" stroke="#8B4513" stroke-width="12.8"/></svg>