<svg xmlns="http://www.w3.org/2000/svg" viewBox="0 0 1024 1024"><defs><linearGradient id="cw-plate" x1="0.12" y1="0.02" x2="0.88" y2="0.98"><stop offset="0" stop-color="#dfa85b"/><stop offset="0.55" stop-color="#c8893f"/><stop offset="1" stop-color="#a9692b"/></linearGradient><clipPath id="cw-clip"><rect x="100" y="100" width="824" height="824" rx="185"/></clipPath><filter id="cw-drop" x="-10%" y="-10%" width="120%" height="125%"><feGaussianBlur stdDeviation="14"/></filter><filter id="cw-blur" x="-25%" y="-25%" width="150%" height="150%"><feGaussianBlur stdDeviation="16"/></filter><filter id="cw-hsoft" x="-30%" y="-40%" width="160%" height="180%"><feGaussianBlur stdDeviation="0.45"/></filter><linearGradient id="cw-sticker" x1="260" y1="243" x2="794" y2="777" gradientUnits="userSpaceOnUse"><stop offset="0" stop-color="#ffffff"/><stop offset="1" stop-color="#efe7da"/></linearGradient><radialGradient id="cw-face" cx="480.5" cy="455.8" r="217" gradientUnits="userSpaceOnUse"><stop offset="0" stop-color="#fffdf8"/><stop offset="1" stop-color="#f3ebdd"/></radialGradient><linearGradient id="cw-band" x1="260" y1="0" x2="794" y2="0" gradientUnits="userSpaceOnUse"><stop offset="0%" stop-color="#ec5a4b"/><stop offset="16.7%" stop-color="#f48d2f"/><stop offset="33.3%" stop-color="#f4c332"/><stop offset="50%" stop-color="#5cb866"/><stop offset="66.7%" stop-color="#2fb2ad"/><stop offset="83.3%" stop-color="#4a8ddf"/><stop offset="100%" stop-color="#9868d8"/></linearGradient><linearGradient id="cw-bandlit" x1="260" y1="243" x2="794" y2="777" gradientUnits="userSpaceOnUse"><stop offset="0" stop-color="#fff" stop-opacity="0.22"/><stop offset="0.5" stop-color="#fff" stop-opacity="0"/><stop offset="1" stop-color="#2a1204" stop-opacity="0.12"/></linearGradient></defs><rect x="108" y="114" width="808" height="814" rx="182" fill="#3b2410" fill-opacity="0.3" filter="url(#cw-drop)"/><g clip-path="url(#cw-clip)"><rect x="100" y="100" width="824" height="824" fill="url(#cw-plate)"/><path d="M470 100L924 100L924 600Z" fill="#fff3dc" fill-opacity="0.13"/><path d="M100 470L100 924L660 924Z" fill="#5a2c08" fill-opacity="0.1"/><g opacity="0.34" transform="translate(10 18)" filter="url(#cw-blur)"><circle cx="527" cy="510" r="247" fill="#3b2a14"/><path d="M582.3 306.4A211 211 0 1 1 330.3 586.3" fill="none" stroke="#3b2a14" stroke-width="198" stroke-linecap="round"/><g transform="translate(333.6 347.7) rotate(313) scale(17.5 17.5)"><g fill="#3b2a14" stroke="#3b2a14" stroke-width="4.571428571428571" stroke-linejoin="round"><ellipse cx="0" cy="0" rx="6" ry="4.5"/><circle cx="-4" cy="-1.5" r="3.5"/><circle cx="-5.5" cy="-3.5" r="1.3"/><circle cx="-2.5" cy="-3.5" r="1.3"/><ellipse cx="-3.25" cy="3.5" rx="1.9" ry="1.65"/><ellipse cx="2.25" cy="3.5" rx="1.9" ry="1.65"/></g><path d="M 4.5 0 Q 7 -1.5 8.5 1" fill="none" stroke="#3b2a14" stroke-width="5.771428571428571" stroke-linecap="round"/></g></g></g><rect x="104" y="104" width="816" height="816" rx="181" fill="none" stroke="#fff3dd" stroke-opacity="0.6" stroke-width="8"/><g ><circle cx="527" cy="510" r="247" fill="url(#cw-sticker)"/><path d="M582.3 306.4A211 211 0 1 1 330.3 586.3" fill="none" stroke="url(#cw-sticker)" stroke-width="198" stroke-linecap="round"/><g transform="translate(333.6 347.7) rotate(313) scale(17.5 17.5)"><g fill="url(#cw-sticker)" stroke="url(#cw-sticker)" stroke-width="4.571428571428571" stroke-linejoin="round"><ellipse cx="0" cy="0" rx="6" ry="4.5"/><circle cx="-4" cy="-1.5" r="3.5"/><circle cx="-5.5" cy="-3.5" r="1.3"/><circle cx="-2.5" cy="-3.5" r="1.3"/><ellipse cx="-3.25" cy="3.5" rx="1.9" ry="1.65"/><ellipse cx="2.25" cy="3.5" rx="1.9" ry="1.65"/></g><path d="M 4.5 0 Q 7 -1.5 8.5 1" fill="none" stroke="url(#cw-sticker)" stroke-width="5.771428571428571" stroke-linecap="round"/></g></g><circle cx="527" cy="510" r="179.5" fill="none" stroke="#e4d9c6" stroke-width="49"/><circle cx="527" cy="510" r="155" fill="url(#cw-face)"/><circle cx="527" cy="510" r="152" fill="none" stroke="#6e4c2e" stroke-opacity="0.08" stroke-width="6"/><path d="M582.3 306.4A211 211 0 1 1 330.3 586.3" fill="none" stroke="url(#cw-band)" stroke-width="112" stroke-linecap="round"/><path d="M582.3 306.4A211 211 0 1 1 330.3 586.3" fill="none" stroke="url(#cw-bandlit)" stroke-width="112" stroke-linecap="round"/><g transform="translate(333.6 347.7) rotate(313) scale(17.5 17.5)"><g transform="translate(-0.25 0.4)" fill="#5b4a32" opacity="0.22" filter="url(#cw-hsoft)"><ellipse cx="0" cy="0" rx="6.4" ry="4.9"/><circle cx="-4" cy="-1.5" r="3.9"/></g><ellipse cx="0" cy="0" rx="6" ry="4.5" fill="#D2691E" stroke="#8B4513" stroke-width="0.8"/><circle cx="-4" cy="-1.5" r="3.5" fill="#DEB887" stroke="#8B4513" stroke-width="0.8"/><circle cx="-5.5" cy="-3.5" r="1.3" fill="#D2691E"/><circle cx="-2.5" cy="-3.5" r="1.3" fill="#D2691E"/><circle cx="-5" cy="-1.5" r="0.7" fill="#000"/><circle cx="-3" cy="-1.5" r="0.7" fill="#000"/><circle cx="-4.8" cy="-1.8" r="0.3" fill="#fff"/><circle cx="-2.8" cy="-1.8" r="0.3" fill="#fff"/><circle cx="-6.5" cy="-0.5" r="0.4" fill="#8B4513"/><g><ellipse cx="-2.5" cy="3.5" rx="1" ry="1.5" fill="#654321" stroke="#3D2611" stroke-width="0.3"/><ellipse cx="-4" cy="3.5" rx="1" ry="1.5" fill="#654321" stroke="#3D2611" stroke-width="0.3"/><ellipse cx="1.5" cy="3.5" rx="1" ry="1.5" fill="#654321" stroke="#3D2611" stroke-width="0.3"/><ellipse cx="3" cy="3.5" rx="1" ry="1.5" fill="#654321" stroke="#3D2611" stroke-width="0.3"/></g><path d="M 4.5 0 Q 7 -1.5 8.5 1" stroke="#8B4513" stroke-width="1.2" fill="none" stroke-linecap="round"/></g></svg>