<svg xmlns="http://www.w3.org/2000/svg" viewBox="0 0 1024 1024"><defs><linearGradient id="cws-plate" x1="0.12" y1="0.02" x2="0.88" y2="0.98"><stop offset="0" stop-color="#dfa85b"/><stop offset="0.55" stop-color="#c8893f"/><stop offset="1" stop-color="#a9692b"/></linearGradient><clipPath id="cws-clip"><rect x="100" y="100" width="824" height="824" rx="185"/></clipPath><filter id="cws-drop" x="-10%" y="-10%" width="120%" height="125%"><feGaussianBlur stdDeviation="14"/></filter><filter id="cws-blur" x="-25%" y="-25%" width="150%" height="150%"><feGaussianBlur stdDeviation="16"/></filter><filter id="cws-hsoft" x="-30%" y="-40%" width="160%" height="180%"><feGaussianBlur stdDeviation="0.45"/></filter><linearGradient id="cws-sticker" x1="369.69999999999993" y1="310.29999999999995" x2="817.9" y2="758.5" gradientUnits="userSpaceOnUse"><stop offset="0" stop-color="#ffffff"/><stop offset="1" stop-color="#efe7da"/></linearGradient><radialGradient id="cws-face" cx="554.8" cy="488.9" r="182.1" gradientUnits="userSpaceOnUse"><stop offset="0" stop-color="#fffdf8"/><stop offset="1" stop-color="#f3ebdd"/></radialGradient><linearGradient id="cws-band" x1="369.69999999999993" y1="0" x2="817.9" y2="0" gradientUnits="userSpaceOnUse"><stop offset="0%" stop-color="#ec5a4b"/><stop offset="16.7%" stop-color="#f48d2f"/><stop offset="33.3%" stop-color="#f4c332"/><stop offset="50%" stop-color="#5cb866"/><stop offset="66.7%" stop-color="#2fb2ad"/><stop offset="83.3%" stop-color="#4a8ddf"/><stop offset="100%" stop-color="#9868d8"/></linearGradient><linearGradient id="cws-bandlit" x1="369.69999999999993" y1="310.29999999999995" x2="817.9" y2="758.5" gradientUnits="userSpaceOnUse"><stop offset="0" stop-color="#fff" stop-opacity="0.22"/><stop offset="0.5" stop-color="#fff" stop-opacity="0"/><stop offset="1" stop-color="#2a1204" stop-opacity="0.12"/></linearGradient></defs><rect x="100" y="100" width="824" height="824" rx="185" fill="#c8893f"/><g ><circle cx="593.8" cy="534.4" r="207.29999999999998" fill="#ffffff"/><path d="M640.3 363.5A177.1 177.1 0 1 1 428.7 598.5" fill="none" stroke="#ffffff" stroke-width="166.2" stroke-linecap="round"/><circle cx="403.9" cy="375.1" r="145.5" fill="#ffffff"/><circle cx="293.2" cy="458.5" r="124.7" fill="#ffffff"/></g><circle cx="593.8" cy="534.4" r="150.7" fill="none" stroke="#e4d9c6" stroke-width="41.1"/><circle cx="593.8" cy="534.4" r="130.1" fill="#fffdf8"/><path d="M640.3 363.5A177.1 177.1 0 1 1 428.7 598.5" fill="none" stroke="url(#cws-band)" stroke-width="94" stroke-linecap="round"/><circle cx="403.9" cy="375.1" r="109.4" fill="#D2691E" stroke="#8B4513" stroke-width="15.3"/><circle cx="293.2" cy="458.5" r="88.6" fill="#DEB887" stroke="#8B4513" stroke-width="15.3"/></svg>