<svg xmlns="http://www.w3.org/2000/svg" viewBox="0 0 1024 1024"><defs><linearGradient id="cwd-plate" x1="0.12" y1="0.02" x2="0.88" y2="0.98"><stop offset="0" stop-color="#7a5128"/><stop offset="0.55" stop-color="#5a3718"/><stop offset="1" stop-color="#3a220e"/></linearGradient><clipPath id="cwd-clip"><rect x="100" y="100" width="824" height="824" rx="185"/></clipPath><filter id="cwd-drop" x="-10%" y="-10%" width="120%" height="125%"><feGaussianBlur stdDeviation="14"/></filter><filter id="cwd-blur" x="-25%" y="-25%" width="150%" height="150%"><feGaussianBlur stdDeviation="16"/></filter><filter id="cwd-soft" x="-30%" y="-100%" width="160%" height="300%"><feGaussianBlur stdDeviation="9"/></filter><filter id="cwd-hsoft" x="-30%" y="-40%" width="160%" height="180%"><feGaussianBlur stdDeviation="0.45"/></filter><linearGradient id="cwd-sticker" x1="214" y1="214" x2="810" y2="810" gradientUnits="userSpaceOnUse"><stop offset="0" stop-color="#e9dfd0"/><stop offset="1" stop-color="#cfc3b1"/></linearGradient><radialGradient id="cwd-face" cx="451.4" cy="441.3" r="282.8" gradientUnits="userSpaceOnUse"><stop offset="0" stop-color="#3a342e"/><stop offset="1" stop-color="#2b2622"/></radialGradient><linearGradient id="cwd-band" x1="214" y1="0" x2="810" y2="0" gradientUnits="userSpaceOnUse"><stop offset="0%" stop-color="#ec5a4b"/><stop offset="16.7%" stop-color="#f48d2f"/><stop offset="33.3%" stop-color="#f4c332"/><stop offset="50%" stop-color="#5cb866"/><stop offset="66.7%" stop-color="#2fb2ad"/><stop offset="83.3%" stop-color="#4a8ddf"/><stop offset="100%" stop-color="#9868d8"/></linearGradient><linearGradient id="cwd-bandlit" x1="214" y1="214" x2="810" y2="810" gradientUnits="userSpaceOnUse"><stop offset="0" stop-color="#fff" stop-opacity="0.22"/><stop offset="0.5" stop-color="#fff" stop-opacity="0"/><stop offset="1" stop-color="#2a1204" stop-opacity="0.12"/></linearGradient></defs><rect x="108" y="114" width="808" height="814" rx="182" fill="#3b2410" fill-opacity="0.3" filter="url(#cwd-drop)"/><g clip-path="url(#cwd-clip)"><rect x="100" y="100" width="824" height="824" fill="url(#cwd-plate)"/><path d="M470 100L924 100L924 600Z" fill="#ffe9c8" fill-opacity="0.07"/><path d="M100 470L100 924L660 924Z" fill="#000000" fill-opacity="0.14"/><g fill="#000000" opacity="0.5" transform="translate(10 18)" filter="url(#cwd-blur)"><circle cx="512" cy="512" r="260"/><path d="M559.7 266.6A250 250 0 1 1 297.7 640.8" fill="none" stroke="#000000" stroke-width="144" stroke-linecap="round"/></g></g><rect x="104" y="104" width="816" height="816" rx="181" fill="none" stroke="#f3d9ae" stroke-opacity="0.22" stroke-width="8"/><g fill="url(#cwd-sticker)" ><circle cx="512" cy="512" r="260"/><path d="M559.7 266.6A250 250 0 1 1 297.7 640.8" fill="none" stroke="url(#cwd-sticker)" stroke-width="144" stroke-linecap="round"/></g><circle cx="512" cy="512" r="219" fill="none" stroke="#4c443b" stroke-width="34"/><circle cx="512" cy="512" r="202" fill="url(#cwd-face)"/><circle cx="512" cy="512" r="199" fill="none" stroke="#6e4c2e" stroke-opacity="0.3" stroke-width="6"/><path d="M559.7 266.6A250 250 0 1 1 297.7 640.8" fill="none" stroke="url(#cwd-band)" stroke-width="96" stroke-linecap="round"/><path d="M559.7 266.6A250 250 0 1 1 297.7 640.8" fill="none" stroke="url(#cwd-bandlit)" stroke-width="96" stroke-linecap="round"/><ellipse cx="508" cy="616.2" rx="136.9" ry="24.1" fill="#6b4a26" fill-opacity="0.35" filter="url(#cwd-soft)"/><g transform="translate(508 520) scale(-18.5 18.5)"><g transform="translate(-0.25 0.4)" fill="#5b4a32" opacity="0.4" filter="url(#cwd-hsoft)"><ellipse cx="0" cy="0" rx="6.4" ry="4.9"/><circle cx="-4" cy="-1.5" r="3.9"/><ellipse cx="-3.25" cy="3.5" rx="1.9" ry="1.65"/><ellipse cx="2.25" cy="3.5" rx="1.9" ry="1.65"/><path d="M 4.5 0 Q 7 -1.5 8.5 1" stroke="#5b4a32" stroke-width="1.2" fill="none" stroke-linecap="round"/></g><ellipse cx="0" cy="0" rx="6" ry="4.5" fill="#D2691E" stroke="#e0b98a" stroke-width="0.8"/><circle cx="-4" cy="-1.5" r="3.5" fill="#DEB887" stroke="#e0b98a" stroke-width="0.8"/><circle cx="-5.5" cy="-3.5" r="1.3" fill="#D2691E"/><circle cx="-2.5" cy="-3.5" r="1.3" fill="#D2691E"/><circle cx="-5" cy="-1.5" r="0.7" fill="#000"/><circle cx="-3" cy="-1.5" r="0.7" fill="#000"/><circle cx="-4.8" cy="-1.8" r="0.3" fill="#fff"/><circle cx="-2.8" cy="-1.8" r="0.3" fill="#fff"/><circle cx="-6.5" cy="-0.5" r="0.4" fill="#8B4513"/><g><ellipse cx="-2.5" cy="3.5" rx="1" ry="1.5" fill="#654321" stroke="#3D2611" stroke-width="0.3"/><ellipse cx="-4" cy="3.5" rx="1" ry="1.5" fill="#654321" stroke="#3D2611" stroke-width="0.3"/><ellipse cx="1.5" cy="3.5" rx="1" ry="1.5" fill="#654321" stroke="#3D2611" stroke-width="0.3"/><ellipse cx="3" cy="3.5" rx="1" ry="1.5" fill="#654321" stroke="#3D2611" stroke-width="0.3"/></g><path d="M 4.5 0 Q 7 -1.5 8.5 1" stroke="#e0b98a" stroke-width="1.2" fill="none" stroke-linecap="round"/></g></svg>